<svg xmlns="http://www.w3.org/2000/svg" width="331" height="246"><path fill="#fefefe" d="M0 0h331v246H0z"/><path d="M127 0h68v20.055l64 37 .033 117.225-97.892 52.887L64 174.28V57l63-37z"/><path fill="#fdfdfd" d="m194.693 62.177 29.849 14.753v73.86l-63.401 36.343c-20.485-12.329-64.99-36.343-64.99-36.343V76.93L127 64v72.632l34.14 14.158 33.553-13.981z"/><path fill="#fbfbfb" d="M161.14 5.893 192.032 24 192 55.063l-30.86-15L131 55V24Z"/><path fill="#f7f7f7" d="m161.14 79 30.891 16-30.89 17.906L131 95Z"/></svg>