<svg width="20" height="20" viewBox="0 0 20 20" fill="none" xmlns="http://www.w3.org/2000/svg">
<path d="M9.16663 14.1666H5.83329C4.68051 14.1666 3.69788 13.7604 2.88538 12.9479C2.07288 12.1354 1.66663 11.1528 1.66663 9.99998C1.66663 8.8472 2.07288 7.86456 2.88538 7.05206C3.69788 6.23956 4.68051 5.83331 5.83329 5.83331H9.16663V7.49998H5.83329C5.13885 7.49998 4.54857 7.74304 4.06246 8.22915C3.57635 8.71526 3.33329 9.30554 3.33329 9.99998C3.33329 10.6944 3.57635 11.2847 4.06246 11.7708C4.54857 12.2569 5.13885 12.5 5.83329 12.5H9.16663V14.1666ZM6.66663 10.8333V9.16665H13.3333V10.8333H6.66663ZM10.8333 14.1666V12.5H14.1666C14.8611 12.5 15.4513 12.2569 15.9375 11.7708C16.4236 11.2847 16.6666 10.6944 16.6666 9.99998C16.6666 9.30554 16.4236 8.71526 15.9375 8.22915C15.4513 7.74304 14.8611 7.49998 14.1666 7.49998H10.8333V5.83331H14.1666C15.3194 5.83331 16.302 6.23956 17.1145 7.05206C17.927 7.86456 18.3333 8.8472 18.3333 9.99998C18.3333 11.1528 17.927 12.1354 17.1145 12.9479C16.302 13.7604 15.3194 14.1666 14.1666 14.1666H10.8333Z" fill="#E8EAED"/>
</svg>
